# xmcd
#
# Track frame offsets: 
#        150
#        18316
#        32922
#        52419
#        69977
#        82280
#        94184
#        112800
#        132296
#        149081
#        163331
#        183101
#        200574
#        219261
#        234486
#        246899
#
# Disc length: 3539 seconds
#
# Revision: 0
# Processed by: cddbd v1.5.2PL0 Copyright (c) Steve Scherf et al.
# Submitted via: ExactAudioCopyFreeDBPlugin 1.0
#
DISCID=ed0dd110
DTITLE=Richard Rar Farell and Steve Guyger - Down Home Old School Countr
DTITLE=y Blues
DYEAR=2006
DGENRE=Blues
TTITLE0=Good Mornin' Little Schoolgirl
TTITLE1=Cool Cool Place To Go
TTITLE2=Rollin' and Tumblin'
TTITLE3=I Gotta Go
TTITLE4=Friar' Poit Blues
TTITLE5=Oh Red
TTITLE6=Cocaine Blues
TTITLE7=Gimme Mine Now
TTITLE8=That's Alright
TTITLE9=Keep Your Hands Off Her
TTITLE10=Sail On
TTITLE11=Big Road Blues
TTITLE12=Early In The Morning
TTITLE13=You Can't Get The Stuff No More
TTITLE14=Baby Please Don't Go
TTITLE15=Diggin' My Potatoes
EXTD=
EXTT0=
EXTT1=
EXTT2=
EXTT3=
EXTT4=
EXTT5=
EXTT6=
EXTT7=
EXTT8=
EXTT9=
EXTT10=
EXTT11=
EXTT12=
EXTT13=
EXTT14=
EXTT15=
PLAYORDER=
